HIERARCHY
ROOT hip
{
  OFFSET 0 0 0
  CHANNELS 6 Xposition Yposition Zposition Zrotation Yrotation Xrotation
  JOINT abdomen
  {
    OFFSET 0 20.6881 -0.73152
    CHANNELS 3 Zrotation Xrotation Yrotation
    JOINT chest
    {
      OFFSET 0 11.7043 -0.48768
      CHANNELS 3 Zrotation Xrotation Yrotation
      JOINT neck
      {
        OFFSET 0 22.1894 -2.19456
        CHANNELS 3 Zrotation Xrotation Yrotation
        JOINT head
        {
          OFFSET -0.24384 7.07133 1.2192
          CHANNELS 3 Zrotation Xrotation Yrotation
          JOINT leftEye
          {
            OFFSET 4.14528 8.04674 8.04672
            CHANNELS 3 Zrotation Xrotation Yrotation
            End Site
            {
              OFFSET 1 0 0
            }
          }
          JOINT rightEye
          {
            OFFSET -3.6576 8.04674 8.04672
            CHANNELS 3 Zrotation Xrotation Yrotation
            End Site
            {
              OFFSET 1 0 0
            }
          }
        }
      }
      JOINT rCollar
      {
        OFFSET -2.68224 19.2634 -4.8768
        CHANNELS 3 Zrotation Xrotation Yrotation
        JOINT rShldr
        {
          OFFSET -8.77824 -1.95073 1.46304
          CHANNELS 3 Zrotation Xrotation Yrotation
          JOINT rForeArm
          {
            OFFSET -28.1742 -1.7115 0.48768
            CHANNELS 3 Zrotation Xrotation Yrotation
            JOINT rHand
            {
              OFFSET -22.5879 0.773209 7.07136
              CHANNELS 3 Zrotation Xrotation Yrotation
              JOINT rThumb1
              {
                OFFSET -1.2192 -0.487915 3.41376
                CHANNELS 3 Zrotation Xrotation Yrotation
                JOINT rThumb2
                {
                  OFFSET -3.37035 -0.52449 3.41376
                  CHANNELS 3 Zrotation Xrotation Yrotation
                  End Site
                  {
                    OFFSET -1.78271 -1.18214 1.43049
                  }
                }
              }
              JOINT rIndex1
              {
                OFFSET -7.75947 0.938293 5.60832
                CHANNELS 3 Zrotation Xrotation Yrotation
                JOINT rIndex2
                {
                  OFFSET -2.54057 -0.884171 1.56538
                  CHANNELS 3 Zrotation Xrotation Yrotation
                  End Site
                  {
                    OFFSET -1.62519 -0.234802 1.16502
                  }
                }
              }
              JOINT rMid1
              {
                OFFSET -8.24714 1.18213 3.41376
                CHANNELS 3 Zrotation Xrotation Yrotation
                JOINT rMid2
                {
                  OFFSET -3.10165 -0.590103 1.0647
                  CHANNELS 3 Zrotation Xrotation Yrotation
                  End Site
                  {
                    OFFSET -2.48547 -0.328903 0.83742
                  }
                }
              }
              JOINT rRing1
              {
                OFFSET -8.82822 0.546677 1.51678
                CHANNELS 3 Zrotation Xrotation Yrotation
                JOINT rRing2
                {
                  OFFSET -2.60934 -0.819778 -0.0198488
                  CHANNELS 3 Zrotation Xrotation Yrotation
                  End Site
                  {
                    OFFSET -2.33842 -0.294052 0.168128
                  }
                }
              }
              JOINT rPinky1
              {
                OFFSET -8.27202 -0.0477905 -0.4584
                CHANNELS 3 Zrotation Xrotation Yrotation
                JOINT rPinky2
                {
                  OFFSET -1.82734 -0.647385 -0.700984
                  CHANNELS 3 Zrotation Xrotation Yrotation
                  End Site
                  {
                    OFFSET -1.69225 -0.51767 -0.607171
                  }
                }
              }
            }
          }
        }
      }
      JOINT lCollar
      {
        OFFSET 2.68224 19.2634 -4.8768
        CHANNELS 3 Zrotation Xrotation Yrotation
        JOINT lShldr
        {
          OFFSET 8.77824 -1.95073 1.46304
          CHANNELS 3 Zrotation Xrotation Yrotation
          JOINT lForeArm
          {
            OFFSET 28.1742 -1.7115 0.48768
            CHANNELS 3 Zrotation Xrotation Yrotation
            JOINT lHand
            {
              OFFSET 22.5879 0.773209 7.07136
              CHANNELS 3 Zrotation Xrotation Yrotation
              JOINT lThumb1
              {
                OFFSET 1.2192 -0.487915 3.41376
                CHANNELS 3 Zrotation Xrotation Yrotation
                JOINT lThumb2
                {
                  OFFSET 3.37035 -0.52449 3.41376
                  CHANNELS 3 Zrotation Xrotation Yrotation
                  End Site
                  {
                    OFFSET 1.78271 -1.18214 1.43049
                  }
                }
              }
              JOINT lIndex1
              {
                OFFSET 7.75947 0.938293 5.60832
                CHANNELS 3 Zrotation Xrotation Yrotation
                JOINT lIndex2
                {
                  OFFSET 2.54057 -0.884171 1.56538
                  CHANNELS 3 Zrotation Xrotation Yrotation
                  End Site
                  {
                    OFFSET 1.62519 -0.234802 1.16502
                  }
                }
              }
              JOINT lMid1
              {
                OFFSET 8.24714 1.18213 3.41376
                CHANNELS 3 Zrotation Xrotation Yrotation
                JOINT lMid2
                {
                  OFFSET 3.10165 -0.590103 1.0647
                  CHANNELS 3 Zrotation Xrotation Yrotation
                  End Site
                  {
                    OFFSET 2.48547 -0.328903 0.83742
                  }
                }
              }
              JOINT lRing1
              {
                OFFSET 8.82822 0.546677 1.51678
                CHANNELS 3 Zrotation Xrotation Yrotation
                JOINT lRing2
                {
                  OFFSET 2.60934 -0.819778 -0.0198488
                  CHANNELS 3 Zrotation Xrotation Yrotation
                  End Site
                  {
                    OFFSET 2.33842 -0.294052 0.168128
                  }
                }
              }
              JOINT lPinky1
              {
                OFFSET 8.27202 -0.0477905 -0.4584
                CHANNELS 3 Zrotation Xrotation Yrotation
                JOINT lPinky2
                {
                  OFFSET 1.82734 -0.647385 -0.700984
                  CHANNELS 3 Zrotation Xrotation Yrotation
                  End Site
                  {
                    OFFSET 1.69225 -0.51767 -0.607171
                  }
                }
              }
            }
          }
        }
      }
    }
  }
  JOINT rButtock
  {
    OFFSET -8.77824 4.35084 1.2192
    CHANNELS 3 Zrotation Xrotation Yrotation
    JOINT rThigh
    {
      OFFSET 0 -1.70687 -2.19456
      CHANNELS 3 Zrotation Xrotation Yrotation
      JOINT rShin
      {
        OFFSET 0 -36.8199 0.73152
        CHANNELS 3 Zrotation Xrotation Yrotation
        JOINT rFoot
        {
          OFFSET 0.73152 -45.1104 -5.12064
          CHANNELS 3 Zrotation Xrotation Yrotation
          End Site
          {
            OFFSET -1.1221 -3.69964 12.103
          }
        }
      }
    }
  }
  JOINT lButtock
  {
    OFFSET 8.77824 4.35084 1.2192
    CHANNELS 3 Zrotation Xrotation Yrotation
    JOINT lThigh
    {
      OFFSET 0 -1.70687 -2.19456
      CHANNELS 3 Zrotation Xrotation Yrotation
      JOINT lShin
      {
        OFFSET 0 -36.8199 0.73152
        CHANNELS 3 Zrotation Xrotation Yrotation
        JOINT lFoot
        {
          OFFSET -0.73152 -45.1104 -5.12064
          CHANNELS 3 Zrotation Xrotation Yrotation
          End Site
          {
            OFFSET 1.1221 -3.69964 12.103
          }
        }
      }
    }
  }
}
MOTION
Frames: 6
Frame Time:	0.06666666
102.366 84.8839 -59.0979 0.0 0.0 0.0 -0.194077 -0.000752048 -0.00553943 -0.0535364 -0.00112971 -0.00927449 -3.95428e-15 -3.97569e-15 6.21202e-18 -1.18308e-14 -6.36111e-15 -9.31803e-18 -0.0 0.0 0.0 -0.0 0.0 0.0 -2.03893e-15 1.55301e-18 2.48481e-16 -3.82039e-14 -1.73937e-16 5.96354e-16 -7.0981e-13 2.12501e-13 -9.54166e-15 -8.15419e-12 -2.17098e-13 -9.54166e-15 -1.92297e-11 -8.24077e-15 -2.8625e-14 -3.3209e-11 -1.59028e-14 -3.81667e-14 -1.92241e-11 -2.78299e-15 -3.81667e-14 7.73091 5.47488 0.417314 -1.92305e-11 -7.85199e-15 -2.22639e-14 2.90554 0.965183 0.102902 -1.92199e-11 -7.7526e-15 -1.98785e-14 10.2786 0.731801 0.0259123 -1.92304e-11 -9.93923e-15 -9.54166e-15 2.22167 -0.733487 -0.20892 -1.9369e-15 1.94126e-18 -2.48481e-16 -4.4116e-14 -8.07563e-17 -9.93923e-16 -7.15327e-13 -2.12501e-13 9.54166e-15 -8.15115e-12 2.11755e-13 -9.54166e-15 -1.92336e-11 -2.72713e-16 -9.54166e-15 -3.32098e-11 0.0 -1.35174e-14 -1.92396e-11 3.18055e-15 -9.54166e-15 -7.73091 5.47488 -0.417314 -1.92354e-11 3.97569e-16 -1.27222e-14 -2.90554 0.965183 -0.102902 -1.92416e-11 3.97569e-16 -1.51076e-14 -10.2786 0.731801 -0.0259123 -1.92292e-11 3.97569e-16 -2.54444e-14 -2.22167 -0.733487 0.20892 -2.03217e-16 0.0 -3.88251e-19 0.355855 -2.82714 -0.0340695 -0.00665507 -0.431854 -0.0584474 -0.502545 3.25829 0.1238 2.03217e-16 0.0 3.88251e-19 -0.65136 -3.58303 0.0525571 0.00446001 0.937454 0.0381203 0.504969 2.64491 -0.111592
99.0178 83.6223 -60.7034 1.2181 -46.7167 -0.0058 -0.375935 1.25344 0.436696 0.243236 -2.39571 0.105212 -6.06148 -3.59425 -2.73903 6.61819 5.37582 -3.78268 -0.0 0.0 0.0 -0.0 0.0 0.0 3.34489e-14 2.79463e-15 6.32157e-13 46.1567 9.28528 -1.51188 -7.88574 -3.63593 13.0856 -0.00467169 4.13681 0.581278 -2.50471e-09 2.89651e-09 1.11953e-09 -4.32124e-09 5.01424e-09 1.95605e-09 -2.50471e-09 2.89651e-09 1.11952e-09 7.73091 5.47488 0.417314 -2.50472e-09 2.89651e-09 1.11953e-09 2.90554 0.965183 0.102902 -2.50471e-09 2.89651e-09 1.11953e-09 10.2786 0.731801 0.0259123 -2.50472e-09 2.89651e-09 1.11954e-09 2.22167 -0.733487 -0.20892 3.34723e-14 2.79761e-15 6.31769e-13 -46.6868 15.6112 0.711514 8.22215 -3.87197 -13.61 0.0152042 7.44812 -1.04611 -1.85273e-09 2.14964e-09 -2.71895e-10 -3.20202e-09 3.74747e-09 -4.47915e-10 -1.85273e-09 2.14964e-09 -2.71886e-10 -7.73091 5.47488 -0.417314 -1.85273e-09 2.14964e-09 -2.71895e-10 -2.90554 0.965183 -0.102902 -1.85273e-09 2.14964e-09 -2.71896e-10 -10.2786 0.731801 -0.0259123 -1.85272e-09 2.14964e-09 -2.719e-10 -2.22167 -0.733487 0.20892 -2.03217e-16 0.0 -3.88251e-19 0.25708 -6.90642 0.350212 -0.0148752 16.9514 0.263152 -1.59921 -6.65854 -5.51737 2.03217e-16 0.0 3.88251e-19 -1.91922 -7.66384 -1.73964 0.0185634 15.0914 -0.183628 0.853598 -4.74078 2.21873
99.0122 83.6223 -60.7083 1.1843 -46.7516 0.0149 -0.538768 2.22508 0.777049 0.47148 -4.24558 0.193043 -10.9349 -6.42302 -4.86994 12.1767 9.55289 -6.76862 -0.0 0.0 0.0 -0.0 0.0 0.0 5.86877e-14 7.94906e-15 1.07205e-12 82.4146 16.5328 -2.74948 -12.9006 -6.10066 23.3671 -0.0666439 7.3459 1.03815 -4.26397e-09 4.95134e-09 1.88253e-09 -7.35664e-09 8.57152e-09 3.28972e-09 -4.26396e-09 4.95134e-09 1.88252e-09 7.73091 5.47488 0.417314 -4.26397e-09 4.95134e-09 1.88252e-09 2.90554 0.965183 0.102902 -4.26397e-09 4.95134e-09 1.88252e-09 10.2786 0.731801 0.0259123 -4.26397e-09 4.95134e-09 1.88253e-09 2.22167 -0.733487 -0.20892 5.86488e-14 7.95352e-15 1.07175e-12 -83.2249 27.7667 1.27325 13.3309 -6.42702 -24.2174 0.218613 13.2008 -1.88913 -3.1465e-09 3.64268e-09 -4.55007e-10 -5.43787e-09 6.35042e-09 -7.48959e-10 -3.14651e-09 3.64268e-09 -4.54991e-10 -7.73091 5.47488 -0.417314 -3.1465e-09 3.64268e-09 -4.55004e-10 -2.90554 0.965183 -0.102902 -3.1465e-09 3.64268e-09 -4.55004e-10 -10.2786 0.731801 -0.0259123 -3.14649e-09 3.64268e-09 -4.55004e-10 -2.22167 -0.733487 0.20892 -2.03217e-16 0.0 -3.88251e-19 0.215079 -10.0736 0.671938 -0.175273 30.472 0.573111 -3.82499 -14.2427 -10.1108 2.03217e-16 0.0 3.88251e-19 -3.08626 -10.8226 -3.17042 0.112893 26.0918 -0.383796 1.54467 -10.465 4.08183
99.0055 83.6233 -60.7124 1.1493 -46.7732 0.0303 -0.608148 2.34643 0.795512 0.472532 -4.45577 0.195385 -11.2828 -7.05045 -5.07659 12.6285 10.3388 -7.09608 -0.0 0.0 0.0 -0.0 0.0 0.0 5.64492e-14 2.70829e-14 9.87373e-13 87.6512 17.7601 -2.87059 -13.5726 -6.43204 24.9074 -0.0786568 7.75236 1.09669 -4.11079e-09 4.84025e-09 1.63096e-09 -7.0941e-09 8.37982e-09 2.85378e-09 -4.11078e-09 4.84025e-09 1.63094e-09 7.73091 5.47488 0.417314 -4.11079e-09 4.84025e-09 1.63095e-09 2.90554 0.965183 0.102902 -4.11079e-09 4.84025e-09 1.63096e-09 10.2786 0.731801 0.0259123 -4.1108e-09 4.84025e-09 1.63097e-09 2.22167 -0.733487 -0.20892 5.6399e-14 2.70855e-14 9.87106e-13 -88.113 29.5884 0.893152 13.789 -6.59689 -25.3482 0.255348 13.8494 -1.98792 -3.02361e-09 3.37719e-09 -3.42286e-10 -5.22401e-09 5.88811e-09 -5.56158e-10 -3.02362e-09 3.37719e-09 -3.42269e-10 -7.73091 5.47488 -0.417314 -3.02361e-09 3.3772e-09 -3.42278e-10 -2.90554 0.965183 -0.102902 -3.02361e-09 3.37719e-09 -3.42277e-10 -10.2786 0.731801 -0.0259123 -3.02361e-09 3.37719e-09 -3.42277e-10 -2.22167 -0.733487 0.20892 -2.03217e-16 0.0 -3.88251e-19 0.188658 -10.507 0.778781 -0.212718 32.4047 0.631706 -4.20613 -15.4339 -10.6282 2.03217e-16 0.0 3.88251e-19 -3.27765 -11.2583 -3.41385 0.133151 27.6354 -0.41544 1.66676 -11.2863 4.32961
99.0066 83.625 -60.7033 1.191 -46.8095 -0.003 -0.610725 2.1917 0.740938 0.388609 -4.13251 0.17876 -10.2153 -6.86457 -4.68848 11.4096 9.92259 -6.58592 -0.0 0.0 0.0 -0.0 0.0 0.0 3.74218e-14 3.47873e-14 6.07685e-13 82.4673 16.8768 -2.59622 -12.9531 -6.13998 23.4706 -0.065398 7.27739 1.02836 -2.69886e-09 3.16924e-09 9.126e-10 -4.65899e-09 5.48726e-09 1.60017e-09 -2.69886e-09 3.16924e-09 9.12577e-10 7.73091 5.47488 0.417314 -2.69886e-09 3.16924e-09 9.12597e-10 2.90554 0.965183 0.102902 -2.69886e-09 3.16923e-09 9.12601e-10 10.2786 0.731801 0.0259123 -2.69887e-09 3.16924e-09 9.12609e-10 2.22167 -0.733487 -0.20892 3.73734e-14 3.47871e-14 6.07436e-13 -82.5512 27.9265 0.341752 12.9398 -6.12995 -23.4443 0.207925 12.8811 -1.84177 -1.95602e-09 2.03256e-09 -1.99818e-10 -3.37879e-09 3.54472e-09 -3.23045e-10 -1.95603e-09 2.03256e-09 -1.99806e-10 -7.73091 5.47488 -0.417314 -1.95602e-09 2.03257e-09 -1.99809e-10 -2.90554 0.965183 -0.102902 -1.95603e-09 2.03256e-09 -1.99807e-10 -10.2786 0.731801 -0.0259123 -1.95602e-09 2.03256e-09 -1.99809e-10 -2.22167 -0.733487 0.20892 -2.03217e-16 0.0 -3.88251e-19 0.182789 -10.0272 0.827502 -0.175442 30.4838 0.583523 -3.74462 -14.5405 -9.73823 2.03217e-16 0.0 3.88251e-19 -3.09901 -10.775 -3.24431 0.112056 26.0221 -0.382031 1.53308 -10.4606 4.04711
99.0029 83.6287 -60.686 1.234 -46.8626 -0.0596 -0.544721 2.19255 0.828664 0.315808 -4.10657 0.200923 -10.2662 -6.82305 -4.77724 11.3781 9.824 -6.73414 -0.0 0.0 0.0 -0.0 0.0 0.0 -6.49106e-15 -5.60193e-15 -2.24136e-13 82.4424 16.6937 -2.51116 -12.9112 -6.10863 23.3879 -0.0678824 7.41476 1.04799 1.00294e-09 -1.63794e-09 -3.35778e-10 1.73132e-09 -2.83649e-09 -5.89969e-10 1.00295e-09 -1.63794e-09 -3.35795e-10 7.73091 5.47488 0.417314 1.00294e-09 -1.63794e-09 -3.35785e-10 2.90554 0.965183 0.102902 1.00295e-09 -1.63794e-09 -3.3578e-10 10.2786 0.731801 0.0259123 1.00294e-09 -1.63794e-09 -3.3577e-10 2.22167 -0.733487 -0.20892 -6.55459e-15 -5.60494e-15 -2.24325e-13 -82.5499 27.9187 0.339553 12.9656 -6.1492 -23.4954 0.210456 12.9573 -1.85304 9.09469e-10 -1.16942e-09 -2.92018e-10 1.56768e-09 -2.03706e-09 -5.1597e-10 9.09467e-10 -1.16942e-09 -2.92018e-10 -7.73091 5.47488 -0.417314 9.09469e-10 -1.16942e-09 -2.92016e-10 -2.90554 0.965183 -0.102902 9.09463e-10 -1.16942e-09 -2.92016e-10 -10.2786 0.731801 -0.0259123 9.09474e-10 -1.16942e-09 -2.9202e-10 -2.22167 -0.733487 0.20892 -2.03217e-16 0.0 -3.88251e-19 0.239043 -9.99975 0.963381 -0.175941 30.5215 0.580635 -3.73256 -14.7156 -9.62329 2.03217e-16 0.0 3.88251e-19 -3.06096 -10.7019 -3.25031 0.111133 25.9592 -0.380382 1.54218 -10.3889 4.10507
